<?xml version="1.0" encoding="UTF-8"?>
<svg xmlns="http://www.w3.org/2000/svg" width="429.896" height="101.434" viewBox="0 0 429.896 101.434">
  <g id="Biltmore-Dermatology_Primary-Logo-Light" transform="translate(-11.475 -9.7)">
    <g id="Group_1310" data-name="Group 1310" transform="translate(11.475 10.867)">
      <g id="Group_1298" data-name="Group 1298" transform="translate(14.047)">
        <path id="Path_2324" data-name="Path 2324" d="M37.2,31.876h0c4.722-1.555,5.888-5.444,7-9.221.333-1.055.611-2.055.944-3,2.389-6.166,11.388-7.166,11.5-7.222.056,0,.167-.056.111-.167a.177.177,0,0,0-.167-.167h0c-13.61.222-14.332,6.444-14.943,11.443-.056.444-.111.889-.167,1.278a8.66,8.66,0,0,1-4.444,6.722c-.056.056-.111.111-.056.222C37.093,31.876,37.148,31.876,37.2,31.876Z" transform="translate(-36.85 -11.933)" fill="#d6d6d6"></path>
        <path id="Path_2325" data-name="Path 2325" d="M37.117,31.965a.375.375,0,0,1-.333-.222.35.35,0,0,1,.167-.444c.167-.056,3.611-1.667,4.277-6.555.056-.444.111-.833.167-1.278.611-5.111,1.333-11.443,15.11-11.666a.477.477,0,0,1,.389.333.406.406,0,0,1-.333.389c-.111,0-9,1.055-11.332,7.055a23.68,23.68,0,0,0-.944,3c-1.111,3.833-2.278,7.777-7.11,9.388Zm0-.333ZM55.726,12.244c-12.61.444-13.332,6.444-13.888,11.277-.056.444-.111.889-.167,1.278a9.039,9.039,0,0,1-3.944,6.555c4.111-1.667,5.166-5.333,6.222-8.888.333-1.055.611-2.055,1-3C46.893,14.244,53.448,12.633,55.726,12.244Z" transform="translate(-36.763 -11.8)" fill="#d6d6d6"></path>
      </g>
      <g id="Group_1299" data-name="Group 1299" transform="translate(24.49 3.03)">
        <path id="Path_2326" data-name="Path 2326" d="M55.9,28.865c0,.056,0,.167.056.167.056.056.111,0,.167,0,7.5-7.777,15.443-7.888,20.776-6.61a28.523,28.523,0,0,1,8.944,4.388C90.285,29.92,96.785,32.92,100.4,33.7a8.741,8.741,0,0,0,1.666.333,12.669,12.669,0,0,0,7.055-1.111.2.2,0,0,0,.056-.167.119.119,0,0,0-.111-.111,30.235,30.235,0,0,1-15.054-4.611,31.754,31.754,0,0,1-2.666-1.778l-8.11-5a17.062,17.062,0,0,0-1.722-.944c-6.444-2.944-12.054-3.389-16.665-1.389C58.122,21.754,55.9,28.809,55.9,28.865Z" transform="translate(-55.713 -17.452)" fill="#d6d6d6"></path>
        <path id="Path_2327" data-name="Path 2327" d="M103.468,34.112a15.083,15.083,0,0,1-1.555-.056,11.376,11.376,0,0,1-1.333-.278c-.167-.056-.278-.056-.333-.111-3.777-.778-10.332-3.889-14.61-6.888a28.284,28.284,0,0,0-8.888-4.388c-5.277-1.222-13.165-1.111-20.554,6.555A.336.336,0,0,1,55.75,29a.305.305,0,0,1-.167-.389h0c0-.056,2.222-7.166,9-10.11,4.666-2.055,10.332-1.555,16.832,1.389a10.764,10.764,0,0,1,1.722.944l8.11,5c.278.222.555.389.833.611a21.016,21.016,0,0,0,1.833,1.222c.167.111.333.167.556.333a28.442,28.442,0,0,0,14.443,4.277.375.375,0,0,1,.333.222.488.488,0,0,1-.056.389A12.52,12.52,0,0,1,103.468,34.112ZM71.748,21.391A20.33,20.33,0,0,1,76.8,22a28.132,28.132,0,0,1,9.055,4.444c4.277,3,10.777,6.055,14.5,6.833a1.152,1.152,0,0,1,.333.111,8.631,8.631,0,0,0,1.278.278,12.55,12.55,0,0,0,6.722-1,29.113,29.113,0,0,1-14.443-4.333c-.222-.111-.389-.222-.5-.278a15.781,15.781,0,0,1-1.889-1.222c-.278-.167-.556-.389-.833-.556l-8.11-5a18.172,18.172,0,0,0-1.722-.944c-6.388-2.889-11.943-3.389-16.5-1.389-5.888,2.555-8.221,8.444-8.666,9.61C61.416,23,67.027,21.391,71.748,21.391ZM55.806,28.668Zm-.056,0Z" transform="translate(-55.563 -17.255)" fill="#d6d6d6"></path>
      </g>
      <g id="Group_1300" data-name="Group 1300" transform="translate(31.767 16.542)">
        <path id="Path_2328" data-name="Path 2328" d="M106.941,51.323c-8.777-7.277-18.387-8.277-25-9a57.825,57.825,0,0,0-12.832,0,.119.119,0,0,0-.111.111.2.2,0,0,0,.056.167l3.555,3.111c.056,0,.056,0,.111.056,13.665-2,25.331,2.666,32.663,6.944a59.276,59.276,0,0,1,12.832,9.832c.056.056.056.056.111.056s.056,0,.111-.056.056-.111.056-.222C115.94,57.6,107.052,51.378,106.941,51.323Z" transform="translate(-68.812 -41.756)" fill="#d6d6d6"></path>
        <path id="Path_2329" data-name="Path 2329" d="M118.233,62.588a.424.424,0,0,1-.278-.111A60.357,60.357,0,0,0,105.179,52.7c-7.333-4.222-18.943-8.888-32.552-6.944h-.111L72.4,45.7a.054.054,0,0,1-.056-.056l-3.555-3.111c-.111-.111-.167-.222-.111-.333a.456.456,0,0,1,.278-.278,58.043,58.043,0,0,1,12.888,0c6.5.667,16.276,1.722,25.109,9l.056.056c2.111,1.5,9.221,6.777,11.554,11.054a.3.3,0,0,1-.111.444C118.4,62.588,118.344,62.588,118.233,62.588Zm-.056-.333ZM79.126,44.923A53.2,53.2,0,0,1,105.4,52.367a61.6,61.6,0,0,1,12.61,9.555c-2.555-4.222-9.777-9.5-11.221-10.5l-.056-.056h0c-8.721-7.222-18.5-8.277-24.886-8.944a54.78,54.78,0,0,0-12.721-.056l3.5,3A43.585,43.585,0,0,1,79.126,44.923Z" transform="translate(-68.661 -41.578)" fill="#d6d6d6"></path>
      </g>
      <g id="Group_1301" data-name="Group 1301" transform="translate(56.753 38.746)">
        <path id="Path_2330" data-name="Path 2330" d="M114.462,125.34a41.316,41.316,0,0,0,.111-8.721,25.745,25.745,0,0,0-.5-3.444,1.569,1.569,0,0,1,.111-1c.333-.722.667-1.444.944-2.166a15.318,15.318,0,0,0,.444-1.5,29.207,29.207,0,0,1,.278,13.61h0a80.305,80.305,0,0,0,3.777-10.888c2.111-7.944,3.666-19.443-.833-29-.056-.056,0-.111.056-.167a.1.1,0,0,1,.167,0c.222.167,5.611,3.777,6.555,6.277.889,2.333-.444,26.331-11.166,37.941Z" transform="translate(-113.818 -81.761)" fill="#d6d6d6"></path>
        <path id="Path_2331" data-name="Path 2331" d="M114.173,126.24h-.111a.289.289,0,0,1-.111-.222l.111-.944h0a39.754,39.754,0,0,0,.111-8.666,34.255,34.255,0,0,0-.5-3.444,1.875,1.875,0,0,1,.111-1.111l.222-.444c.278-.555.5-1.167.778-1.722a11.535,11.535,0,0,0,.444-1.444c0-.111.111-.167.222-.167h0c.111,0,.167.056.222.167a30.524,30.524,0,0,1,.667,11.666,73.421,73.421,0,0,0,2.944-8.944c2.111-7.888,3.666-19.331-.833-28.886a.348.348,0,0,1,.111-.444.336.336,0,0,1,.444,0c.555.389,5.666,3.889,6.61,6.333.833,2.333-.444,26.5-11.166,38.163C114.284,126.24,114.229,126.24,114.173,126.24Zm.278-1.111-.056.278c10.277-11.721,11.5-35,10.666-37.274-.833-2.222-5.333-5.388-6.277-6.055,4.444,9.61,2.889,21.053.778,29a84.409,84.409,0,0,1-3.777,10.888.2.2,0,0,1-.278.111c-.111-.056-.167-.167-.111-.222a29.441,29.441,0,0,0-.056-12.777,3.854,3.854,0,0,1-.278.722c-.222.611-.5,1.167-.778,1.778l-.167.444a1.456,1.456,0,0,0-.111.833,33.154,33.154,0,0,1,.5,3.5A40.186,40.186,0,0,1,114.451,125.129Z" transform="translate(-113.64 -81.55)" fill="#d6d6d6"></path>
      </g>
      <g id="Group_1302" data-name="Group 1302" transform="translate(63.785 28.442)">
        <path id="Path_2332" data-name="Path 2332" d="M137.466,72.344a20.651,20.651,0,0,0-6.888-7.277,8.374,8.374,0,0,0-1.111-.667,7.888,7.888,0,0,0-2.555-1,.119.119,0,0,0-.111.111.2.2,0,0,0,.056.167,12.306,12.306,0,0,1,1,.833h0s9.221,5.777,10.11,16.221c.389,2.055.555,7.055,1,9.11.833,3.5,2.222,8.221,4.166,10.5l3.666,5.222c-2.111-3.722-6.833-14.554-6.444-21.109A22.437,22.437,0,0,0,137.466,72.344Z" transform="translate(-126.522 -63.178)" fill="#d6d6d6"></path>
        <path id="Path_2333" data-name="Path 2333" d="M146.465,105.607c-.056,0-.111-.056-.167-.111l-3.666-5.222c-1.944-2.333-3.333-7-4.166-10.555a43.907,43.907,0,0,1-.611-5.222c-.111-1.555-.222-3-.389-3.889-.889-10.277-9.888-16.054-10-16.11-.278-.222-.611-.556-1-.833a.414.414,0,0,1-.167-.389.669.669,0,0,1,.278-.278,7.611,7.611,0,0,1,2.722,1q.5.25,1.167.667A20.948,20.948,0,0,1,137.41,72a21.717,21.717,0,0,1,2.833,12.277c-.333,6.722,4.611,17.72,6.444,21a.244.244,0,0,1-.056.278A.2.2,0,0,1,146.465,105.607ZM127.689,64.222c1.111.667,9.332,6.5,10.166,16.387.167.889.278,2.389.389,3.944a42.763,42.763,0,0,0,.611,5.166c.833,3.5,2.222,8.166,4.111,10.388l2,2.833c-2.222-4.722-5.444-13.054-5.166-18.609a21.4,21.4,0,0,0-2.777-12.054h0a20.684,20.684,0,0,0-6.777-7.222,7.581,7.581,0,0,0-1.111-.611,10.978,10.978,0,0,0-2.278-.944,3.224,3.224,0,0,1,.833.722Z" transform="translate(-126.3 -63)" fill="#d6d6d6"></path>
      </g>
      <g id="Group_1303" data-name="Group 1303" transform="translate(17.977 49.106)">
        <path id="Path_2334" data-name="Path 2334" d="M82.871,100.711c-.056-.056-.111-.111-.167-.111a.119.119,0,0,0-.111.111c-.333,17.443-12.11,25.109-15.387,26.886a23.752,23.752,0,0,0-2.333,1.444C60.1,132.486,50.6,140.763,49.93,147.373h0c-2.389-9.555-.389-16.887,1.944-21.553a27.489,27.489,0,0,1,6.666-8.832.2.2,0,0,0,.056-.167c-.056-.056-.111-.111-.167-.056-.111.056-10.777,3.833-13.443,15.332-2.666,11.443,5.833,19.109,5.888,19.22.056,0,.056.056.111.056h.056l.056-.056v-.111c.278-7.11,7.055-12.332,14.943-18.332,2.833-2.166,5.722-4.388,8.61-6.888,7.555-6.5,9.388-13.054,9.61-17.387A18.218,18.218,0,0,0,82.871,100.711Z" transform="translate(-44.118 -100.378)" fill="#d6d6d6"></path>
        <path id="Path_2335" data-name="Path 2335" d="M50.594,151.362a.424.424,0,0,1-.278-.111c-.111-.056-8.666-7.833-5.944-19.387,2.666-11.61,13.5-15.443,13.61-15.443a.372.372,0,0,1,.444.167.3.3,0,0,1-.111.444,27.541,27.541,0,0,0-6.555,8.721A30.823,30.823,0,0,0,49.594,146.2c1.444-6.333,9.832-13.832,14.832-17.443a17.911,17.911,0,0,1,2.389-1.5c3.5-1.889,14.943-9.5,15.276-26.72a.352.352,0,0,1,.278-.333.372.372,0,0,1,.389.222h0a16.757,16.757,0,0,1,1.333,8c-.222,4.388-2.111,10.943-9.666,17.5-2.889,2.5-5.833,4.722-8.61,6.888-7.833,6-14.61,11.166-14.887,18.165v.111c0,.056,0,.056-.056.056l-.056.056-.056.056a.172.172,0,0,1-.111.056.054.054,0,0,1-.056.056Zm.111-.333Zm7.11-34.108c-1.722.667-10.666,4.777-13.054,15.054-2.5,10.721,4.888,18.109,5.777,18.943.333-7.166,7.166-12.332,15-18.387,2.833-2.166,5.722-4.388,8.61-6.888,7.5-6.444,9.332-12.943,9.555-17.221a17.239,17.239,0,0,0-1.222-7.61c-.444,17.276-11.943,24.886-15.5,26.831a21.423,21.423,0,0,0-2.333,1.444c-5.222,3.777-14.221,11.832-14.832,18.22a.177.177,0,0,1-.167.167c-.111,0-.167-.056-.222-.167a31.218,31.218,0,0,1,1.944-21.72A28.754,28.754,0,0,1,57.815,116.921Zm.222-.222Zm24.386-16.11Z" transform="translate(-43.838 -100.2)" fill="#d6d6d6"></path>
      </g>
      <g id="Group_1304" data-name="Group 1304" transform="translate(13.76 33.905)">
        <path id="Path_2336" data-name="Path 2336" d="M41.26,110.8c2.722-4.555,7.555-6.666,12.221-8.721C58.7,99.8,64.091,97.409,66.425,91.632a17.558,17.558,0,0,0-2.611-18.276.2.2,0,0,0-.167-.056.106.106,0,0,0-.056.167c2.166,8.61,1.444,10.721.778,12.554-1.611,4.555-5.777,8.666-12.332,12.11a35.983,35.983,0,0,0-11.554,9.832,18.286,18.286,0,0,0-3.444,6.888c-1.278,5,.555,6.777.611,6.833.056,0,.056.056.111.056h.056c.056-.056.111-.111.056-.167C37.927,121.462,37.483,117.129,41.26,110.8Z" transform="translate(-36.398 -73.041)" fill="#d6d6d6"></path>
        <path id="Path_2337" data-name="Path 2337" d="M37.609,121.7a.289.289,0,0,1-.222-.111c-.111-.056-2-1.889-.667-7.055a18.24,18.24,0,0,1,3.5-6.944A37.355,37.355,0,0,1,51.886,97.7c6.5-3.444,10.61-7.5,12.221-12,.667-1.778,1.389-3.833-.778-12.443a.339.339,0,0,1,.167-.389.419.419,0,0,1,.444.056,17.716,17.716,0,0,1,2.666,18.5c-2.389,5.833-7.777,8.221-13.054,10.555-4.666,2.055-9.444,4.166-12.165,8.666-3.722,6.277-3.333,10.555-3.333,10.61a.336.336,0,0,1-.167.333C37.72,121.7,37.665,121.7,37.609,121.7Zm-.056-.333Zm26.109-47.94c2.111,8.5,1.389,10.61.722,12.443-1.667,4.611-5.833,8.721-12.443,12.221a35.628,35.628,0,0,0-11.5,9.777,18.972,18.972,0,0,0-3.389,6.777c-1.111,4.277.111,6.111.444,6.5-.056-.833-.056-4.944,3.389-10.721h0c2.778-4.611,7.61-6.777,12.332-8.832,5.166-2.278,10.555-4.611,12.832-10.332A17.226,17.226,0,0,0,63.662,73.426Z" transform="translate(-36.246 -72.834)" fill="#d6d6d6"></path>
      </g>
      <g id="Group_1305" data-name="Group 1305" transform="translate(11.954 48.551)">
        <path id="Path_2338" data-name="Path 2338" d="M45.277,104.755c.056-1.667.056-3.389.056-5.055h0a18.679,18.679,0,0,1-7.944,4.277c-.056,0-.111.056-.111.167,0,.056.056.111.111.167q2.333.667,2.833,2c.667,1.833-1.167,4.555-3.666,8.388l-.056.111c-4.388,6.666-2.889,12.388-2.833,12.443,0,.056.056.111.167.111h0c.056,0,.111-.111.111-.167-.333-4.722,3.111-9.832,4.388-11.221a12.315,12.315,0,0,1,.944-1c.667-.722,1.611-1.722,2.611-2.889a15.887,15.887,0,0,0,2.889-4.722,10.833,10.833,0,0,0,.5-2.611Z" transform="translate(-33.164 -99.422)" fill="#d6d6d6"></path>
        <path id="Path_2339" data-name="Path 2339" d="M33.609,127.308a.352.352,0,0,1-.333-.278c0-.056-1.611-5.888,2.889-12.61l.056-.111c2.5-3.777,4.277-6.5,3.666-8.221-.278-.833-1.167-1.444-2.722-1.889a.418.418,0,0,1-.278-.389.352.352,0,0,1,.278-.333A18.556,18.556,0,0,0,45,99.256a.334.334,0,0,1,.222-.056c.056.056.111.111.111.167,0,1.778,0,3.389-.056,5.055h0a9.171,9.171,0,0,1-.555,2.611,15.484,15.484,0,0,1-2.944,4.833c-1,1.167-1.944,2.166-2.611,2.889l-.111.167c-.333.389-.611.667-.833.889-1.222,1.389-4.666,6.444-4.333,11.11a.418.418,0,0,1-.278.389Zm-.056-.333ZM37.5,103.922c1.555.5,2.444,1.167,2.778,2.055.722,1.944-1.167,4.722-3.722,8.555l-.056.111a16.733,16.733,0,0,0-2.944,11.61c0-4.611,3.277-9.332,4.444-10.721a10,10,0,0,1,.833-.889l.111-.111c.667-.722,1.611-1.722,2.611-2.889a15.455,15.455,0,0,0,2.833-4.666,8.139,8.139,0,0,0,.556-2.444h0c.056-1.5.056-3,.056-4.611A19.765,19.765,0,0,1,37.5,103.922Z" transform="translate(-32.995 -99.2)" fill="#d6d6d6"></path>
      </g>
      <g id="Group_1306" data-name="Group 1306" transform="translate(0.724 38.204)">
        <path id="Path_2340" data-name="Path 2340" d="M32.7,91.358c6.833-4.277,3.889-10.166,3.889-10.221-.056-.056-.111-.111-.167-.056-.056,0-.111.111-.111.167.111,1.555-2.111,7.055-6.61,8.11a22.113,22.113,0,0,0-6.166,2.611A28.72,28.72,0,0,1,19.2,94.08a3.471,3.471,0,0,1-2.889-.056,5.952,5.952,0,0,1-2.444-3.444c0-.056-.056-.111-.167-.111h0c-.056,0-.111.056-.167.111a17.58,17.58,0,0,0-.389,5.333c.278,2.666,4.777,5.111,4.944,5.166H18.2c.056,0,.056-.056.111-.111.889-4.166,3.666-5.166,7.5-6.555A30.524,30.524,0,0,0,32.7,91.358Z" transform="translate(-12.911 -80.789)" fill="#d6d6d6"></path>
        <path id="Path_2341" data-name="Path 2341" d="M18.068,101.086a.2.2,0,0,1-.167-.056c-.5-.278-4.777-2.611-5.055-5.333a18.075,18.075,0,0,1,.389-5.388.352.352,0,0,1,.333-.278.311.311,0,0,1,.333.278s.667,2.444,2.333,3.277a3.3,3.3,0,0,0,2.722.056,27.906,27.906,0,0,0,4.277-2.111,21.82,21.82,0,0,1,6.222-2.611c4.388-1.055,6.555-6.444,6.444-7.944a.418.418,0,0,1,.278-.389.339.339,0,0,1,.389.167c.056.056,3.055,6.166-3.944,10.5h0a36.52,36.52,0,0,1-6.888,3.111c-3.777,1.333-6.5,2.333-7.388,6.388a.239.239,0,0,1-.222.222C18.179,101.086,18.123,101.086,18.068,101.086Zm.056-.389Zm-4.5-10.11a16.657,16.657,0,0,0-.333,5.055c.222,2.444,4.222,4.666,4.777,5,.944-4.222,3.722-5.222,7.61-6.61a32.184,32.184,0,0,0,6.777-3.055h0c2.778-1.722,4.277-3.944,4.388-6.5a7.98,7.98,0,0,0-.5-3.222c-.111,1.889-2.389,7.055-6.777,8.11a23.5,23.5,0,0,0-6.111,2.555,29.552,29.552,0,0,1-4.388,2.111,3.866,3.866,0,0,1-3.055-.056A6.376,6.376,0,0,1,13.624,90.587Zm18.943.555Zm-19-.722Z" transform="translate(-12.778 -80.573)" fill="#d6d6d6"></path>
      </g>
      <g id="Group_1307" data-name="Group 1307" transform="translate(0 27.759)">
        <path id="Path_2342" data-name="Path 2342" d="M12.9,76.494a.2.2,0,0,0,.056.167.1.1,0,0,0,.167,0,21.5,21.5,0,0,1,16.554,1.222h.056a.119.119,0,0,0,.111-.111c.056-.056,0-.111-.056-.167.056-.056.056-.056.056-.111,0-.111-.389-3.055-6.333-3.555-4.944-.389-7.444-2.5-8.055-6.777a.8.8,0,0,1,.333-.778c.778-.556,2.111-1.666,2.055-3a.97.97,0,0,0-.389-.778c-.778-.667-2.611-.5-3.666-.389a2.344,2.344,0,0,0-1.389.667,2,2,0,0,0-.611,1.167,2.155,2.155,0,0,0,.333,1.389C12.955,66.606,14.455,69.828,12.9,76.494Z" transform="translate(-11.609 -61.923)" fill="#d6d6d6"></path>
        <path id="Path_2343" data-name="Path 2343" d="M29.543,77.9a.2.2,0,0,1-.167-.056,21.257,21.257,0,0,0-16.387-1.167.488.488,0,0,1-.389-.056c-.111-.111-.167-.222-.111-.333h0c1.555-6.555.056-9.777-.611-10.832a2.265,2.265,0,0,1-.389-1.555,1.928,1.928,0,0,1,.667-1.278,2.4,2.4,0,0,1,1.5-.722c1.278-.167,3-.278,3.833.389a1.16,1.16,0,0,1,.444.889c.056,1.389-1.333,2.555-2.166,3.166a.708.708,0,0,0-.278.611c.555,4.166,3,6.222,7.833,6.61,6.111.5,6.5,3.555,6.5,3.722v.444C29.821,77.841,29.71,77.9,29.543,77.9ZM19.71,75.175a21.525,21.525,0,0,1,9.721,2.278.2.2,0,0,1,.056-.167c0-.056-.389-2.833-6.166-3.277-5.055-.389-7.61-2.555-8.221-7a1.023,1.023,0,0,1,.444-1c.778-.555,2-1.611,2-2.833a.892.892,0,0,0-.278-.611c-.5-.444-1.778-.556-3.5-.333a2.133,2.133,0,0,0-1.278.611,1.956,1.956,0,0,0-.556,1.055,1.72,1.72,0,0,0,.333,1.222c.722,1.111,2.222,4.388.722,11.054A24.157,24.157,0,0,1,19.71,75.175Z" transform="translate(-11.475 -61.771)" fill="#d6d6d6"></path>
      </g>
      <g id="Group_1308" data-name="Group 1308" transform="translate(12.512 21.145)">
        <path id="Path_2344" data-name="Path 2344" d="M34.367,55.16a22.954,22.954,0,0,0,4.222.389,23.677,23.677,0,0,0,12.721-3.555.2.2,0,0,0,.056-.167c0-.056-.056-.111-.167-.111a28.145,28.145,0,0,1-8.888-1.333.267.267,0,0,0-.333.111c-1.722,2.833-7.61,4.333-7.666,4.333s-.111.056-.111.167C34.256,55.049,34.311,55.16,34.367,55.16Z" transform="translate(-34.089 -50.085)" fill="#d6d6d6"></path>
        <path id="Path_2345" data-name="Path 2345" d="M38.555,55.495a22.281,22.281,0,0,1-4.277-.389h0A.311.311,0,0,1,34,54.772a.418.418,0,0,1,.278-.389c.056,0,5.888-1.555,7.555-4.277a.527.527,0,0,1,.611-.222,27.93,27.93,0,0,0,8.777,1.278.352.352,0,0,1,.333.278.319.319,0,0,1-.111.389A23.575,23.575,0,0,1,38.555,55.495Zm-4-.722a24.3,24.3,0,0,0,16.387-3.055,29.371,29.371,0,0,1-8.777-1.333c-.056,0-.056,0-.111.056C40.555,52.939,35.722,54.439,34.556,54.772Z" transform="translate(-34 -49.864)" fill="#d6d6d6"></path>
      </g>
      <g id="Group_1309" data-name="Group 1309" transform="translate(69.662 52.106)">
        <path id="Path_2346" data-name="Path 2346" d="M146.339,118.01a8.85,8.85,0,0,1-.722-.722A29.873,29.873,0,0,1,137.84,105.9h0c-.111,1.833-.5,3.222-.444,4.944h0a26.288,26.288,0,0,0,6.555,7.221,74.755,74.755,0,0,1,7.277,6.388c-.333-.722-2-2.777-2.444-3.444A12.844,12.844,0,0,0,146.339,118.01Z" transform="translate(-137.107 -105.733)" fill="#d6d6d6"></path>
        <path id="Path_2347" data-name="Path 2347" d="M150.945,124.543a.2.2,0,0,1-.167-.056A72.149,72.149,0,0,0,143.5,118.1a26.267,26.267,0,0,1-6.61-7.277v-.111a16.672,16.672,0,0,1,.222-2.944,19.975,19.975,0,0,0,.222-2,.147.147,0,0,1,.167-.167.289.289,0,0,1,.222.111,30.676,30.676,0,0,0,7.721,11.332,8.847,8.847,0,0,1,.722.722h0a12.4,12.4,0,0,1,2.333,2.889l.111.167c.167.222.5.722.889,1.167a18.342,18.342,0,0,1,1.611,2.278.244.244,0,0,1-.056.278Zm-13.61-13.888a25.286,25.286,0,0,0,6.5,7.11c1.611,1.278,3.833,3.055,5.777,4.888a3.08,3.08,0,0,0-.333-.444c-.389-.5-.722-.944-.889-1.222l-.111-.167A12.158,12.158,0,0,0,146,117.988h0a8.861,8.861,0,0,1-.722-.722,30.352,30.352,0,0,1-7.5-10.721c-.056.444-.111.833-.167,1.222A16.957,16.957,0,0,0,137.336,110.655Z" transform="translate(-136.88 -105.6)" fill="#d6d6d6"></path>
      </g>
    </g>
    <g id="Group_1311" data-name="Group 1311" transform="translate(143.421 9.7)">
      <path id="Path_2348" data-name="Path 2348" d="M271.831,33.753a.119.119,0,0,0,.111.111,12.467,12.467,0,0,1,5.722,4.611,12.618,12.618,0,0,1,2,7.166,12.382,12.382,0,0,1-3.777,9.5,14.48,14.48,0,0,1-10,3.444H249.667a.589.589,0,0,1-.667-.667V11.367a.589.589,0,0,1,.667-.667h15.721c4.222,0,7.61,1.111,10.055,3.277a11.6,11.6,0,0,1,3.722,9.11,11.2,11.2,0,0,1-1.833,6.5A11.432,11.432,0,0,1,272,33.642C271.887,33.642,271.831,33.7,271.831,33.753ZM252.611,14.2V32.142a.262.262,0,0,0,.278.278h12.5a10.773,10.773,0,0,0,7.444-2.5,8.553,8.553,0,0,0,2.777-6.61,8.955,8.955,0,0,0-2.777-6.833,10.45,10.45,0,0,0-7.444-2.555h-12.5C252.666,13.922,252.611,13.977,252.611,14.2Zm20.665,38.385a9.539,9.539,0,0,0,2.778-7.166,9.379,9.379,0,0,0-2.889-7.277A10.761,10.761,0,0,0,265.5,35.42h-12.61a.262.262,0,0,0-.278.278V54.973a.262.262,0,0,0,.278.278h13A9.694,9.694,0,0,0,273.275,52.585Z" transform="translate(-249 -10.144)" fill="#fff"></path>
      <path id="Path_2349" data-name="Path 2349" d="M326.4,57.918V11.367a.589.589,0,0,1,.667-.667h2.277a.589.589,0,0,1,.667.667V57.918a.589.589,0,0,1-.667.667h-2.277A.589.589,0,0,1,326.4,57.918Z" transform="translate(-283.404 -10.144)" fill="#fff"></path>
      <path id="Path_2350" data-name="Path 2350" d="M358.2,57.918V11.367a.589.589,0,0,1,.667-.667h2.278a.589.589,0,0,1,.667.667V55.085a.262.262,0,0,0,.278.278h24.553a.589.589,0,0,1,.667.667v1.833a.589.589,0,0,1-.667.667H358.867C358.422,58.584,358.2,58.362,358.2,57.918Z" transform="translate(-297.539 -10.144)" fill="#fff"></path>
      <path id="Path_2351" data-name="Path 2351" d="M442.063,11.4v1.833a.589.589,0,0,1-.667.667H427.732a.262.262,0,0,0-.278.278V57.9a.589.589,0,0,1-.667.667H424.51a.589.589,0,0,1-.667-.667V14.237a.262.262,0,0,0-.278-.278h-13a.589.589,0,0,1-.667-.667V11.46a.589.589,0,0,1,.667-.667h30.886C441.841,10.738,442.063,10.96,442.063,11.4Z" transform="translate(-320.52 -10.182)" fill="#fff"></path>
      <path id="Path_2352" data-name="Path 2352" d="M518.141,10.7h2.333a.589.589,0,0,1,.667.667V57.918a.589.589,0,0,1-.667.667H518.2a.589.589,0,0,1-.667-.667V17.755c0-.111-.055-.222-.111-.222-.111,0-.167.056-.222.167L505.143,36.309a.979.979,0,0,1-.833.5h-1.167a.979.979,0,0,1-.833-.5L490.144,17.755c-.056-.111-.111-.167-.222-.111s-.111.111-.111.278V57.973a.589.589,0,0,1-.667.667h-2.278a.589.589,0,0,1-.667-.667V11.367a.589.589,0,0,1,.667-.667h2.389a.979.979,0,0,1,.833.5l13.388,20.554c.056.056.111.056.222.056s.167,0,.222-.056L517.308,11.2A.979.979,0,0,1,518.141,10.7Z" transform="translate(-354.435 -10.144)" fill="#fff"></path>
      <path id="Path_2353" data-name="Path 2353" d="M579,56.751a13.581,13.581,0,0,1-5.555-5.5,16.678,16.678,0,0,1-1.944-8.11V25.254a16.678,16.678,0,0,1,1.944-8.11,13.928,13.928,0,0,1,5.555-5.5,18.828,18.828,0,0,1,16.665,0,13.39,13.39,0,0,1,5.611,5.5,16.109,16.109,0,0,1,2,8.11V43.2a16.109,16.109,0,0,1-2,8.11,14.071,14.071,0,0,1-5.611,5.5,17.73,17.73,0,0,1-8.333,1.944A18.27,18.27,0,0,1,579,56.751ZM596.275,52.2a11.89,11.89,0,0,0,3.388-8.888V25.143a11.976,11.976,0,0,0-3.388-8.888,12.019,12.019,0,0,0-8.944-3.389,11.761,11.761,0,0,0-8.832,3.389,12.158,12.158,0,0,0-3.333,8.888V43.252A12.622,12.622,0,0,0,596.275,52.2Z" transform="translate(-392.351 -9.7)" fill="#fff"></path>
      <path id="Path_2354" data-name="Path 2354" d="M678.553,58.084,668.109,36.309c-.056-.111-.111-.222-.278-.222H654.889a.262.262,0,0,0-.278.278v21.5a.589.589,0,0,1-.667.667h-2.278a.589.589,0,0,1-.667-.667v-46.5a.589.589,0,0,1,.667-.667h17.221a12.39,12.39,0,0,1,9.277,3.555,12.789,12.789,0,0,1,3.5,9.332A12.659,12.659,0,0,1,679,31.753a11.527,11.527,0,0,1-7.166,4.166c-.222.111-.278.222-.222.333l10.5,21.5a.7.7,0,0,1,.056.333c0,.333-.167.5-.555.5h-2.278A.838.838,0,0,1,678.553,58.084ZM654.611,14.2V32.864a.262.262,0,0,0,.278.278h13.665a9.054,9.054,0,0,0,9.5-9.555,9.652,9.652,0,0,0-2.611-7,9.293,9.293,0,0,0-6.888-2.666H654.889C654.722,13.922,654.611,13.977,654.611,14.2Z" transform="translate(-427.689 -10.144)" fill="#fff"></path>
      <path id="Path_2355" data-name="Path 2355" d="M756.23,13.922H730.288a.262.262,0,0,0-.278.278V32.7a.262.262,0,0,0,.278.278h18.387a.589.589,0,0,1,.667.667v1.833a.589.589,0,0,1-.667.667H730.288a.262.262,0,0,0-.278.278V55.085a.262.262,0,0,0,.278.278H756.23a.589.589,0,0,1,.667.667v1.833a.589.589,0,0,1-.667.667H727.067a.589.589,0,0,1-.667-.667v-46.5a.589.589,0,0,1,.667-.667H756.23a.589.589,0,0,1,.667.667V13.2C756.9,13.7,756.675,13.922,756.23,13.922Z" transform="translate(-461.204 -10.144)" fill="#fff"></path>
    </g>
    <g id="Group_1312" data-name="Group 1312" transform="translate(143.365 74.86)">
      <path id="Path_2356" data-name="Path 2356" d="M248.9,159.841v-31.5c0-.333.167-.444.444-.444h10.777a10.2,10.2,0,0,1,7.055,2.333,8.166,8.166,0,0,1,2.611,6.388v15a8.247,8.247,0,0,1-2.611,6.388,10.1,10.1,0,0,1-7.055,2.333H249.344C249.067,160.286,248.9,160.175,248.9,159.841Zm2.611-1.722h8.721a6.937,6.937,0,0,0,5.111-1.833,6.821,6.821,0,0,0,1.944-5V136.844a6.575,6.575,0,0,0-1.889-5,7.163,7.163,0,0,0-5.166-1.833h-8.721a.147.147,0,0,0-.167.167v27.775A.147.147,0,0,0,251.511,158.119Z" transform="translate(-248.9 -127.4)" fill="#989898"></path>
      <path id="Path_2357" data-name="Path 2357" d="M320.665,130.011H303.111a.147.147,0,0,0-.167.167v12.5a.147.147,0,0,0,.167.167h12.443c.333,0,.444.167.444.444v1.278c0,.333-.167.444-.444.444H303.111a.147.147,0,0,0-.167.167v12.776a.147.147,0,0,0,.167.167h17.554c.333,0,.444.167.444.444v1.278c0,.333-.167.444-.444.444h-19.72c-.333,0-.444-.167-.444-.444v-31.5c0-.333.167-.444.444-.444h19.72c.333,0,.444.167.444.444v1.278C321.165,129.9,321,130.011,320.665,130.011Z" transform="translate(-271.836 -127.4)" fill="#989898"></path>
      <path id="Path_2358" data-name="Path 2358" d="M370.165,159.908l-7.11-14.721q-.083-.167-.167-.167h-8.777a.147.147,0,0,0-.167.167v14.554c0,.333-.167.444-.444.444h-1.555c-.333,0-.444-.167-.444-.444v-31.5c0-.333.167-.444.444-.444H363.61a8.416,8.416,0,0,1,6.277,2.389,9.392,9.392,0,0,1,.556,11.832,7.655,7.655,0,0,1-4.888,2.777c-.167.056-.222.167-.167.222l7.11,14.61a.334.334,0,0,1,.056.222c0,.222-.111.333-.389.333h-1.555A.365.365,0,0,1,370.165,159.908Zm-16.276-29.719v12.665a.147.147,0,0,0,.167.167h9.277A6.321,6.321,0,0,0,368,141.188a7.086,7.086,0,0,0,0-9.388,6.15,6.15,0,0,0-4.666-1.833h-9.277A.248.248,0,0,0,353.889,130.189Z" transform="translate(-294.506 -127.356)" fill="#989898"></path>
      <path id="Path_2359" data-name="Path 2359" d="M424.12,127.8h1.555c.333,0,.444.167.444.444v31.5c0,.333-.167.444-.444.444H424.12c-.333,0-.444-.167-.444-.444v-27.22c0-.111-.056-.167-.111-.167s-.111,0-.167.111l-8.11,12.665a.676.676,0,0,1-.556.333h-.778a.676.676,0,0,1-.555-.333l-8.277-12.554c-.056-.111-.056-.111-.167-.111-.056.056-.111.111-.111.167v27.108c0,.333-.167.444-.444.444h-1.555c-.333,0-.444-.167-.444-.444v-31.5c0-.333.167-.444.444-.444h1.611a.676.676,0,0,1,.556.333l9.11,13.888c.055.056.055.056.167.056a.2.2,0,0,0,.167-.056l9.11-13.888A.611.611,0,0,1,424.12,127.8Z" transform="translate(-317.131 -127.356)" fill="#989898"></path>
      <path id="Path_2360" data-name="Path 2360" d="M478.265,159.952l-2-6.166q-.083-.167-.167-.167H461.655a.147.147,0,0,0-.167.167l-1.944,6.166a.6.6,0,0,1-.556.389h-1.611c-.333,0-.444-.167-.389-.5l10.277-31.552a.6.6,0,0,1,.556-.389h2.111a.535.535,0,0,1,.556.389l10.332,31.552.055.167c0,.222-.167.333-.444.333h-1.555C478.543,160.286,478.32,160.175,478.265,159.952Zm-16.054-8.444a.2.2,0,0,0,.167.056h12.943a.2.2,0,0,0,.167-.056.1.1,0,0,0,0-.167l-6.555-20.165c-.056-.056-.056-.111-.167-.111-.056,0-.111.056-.167.111l-6.555,20.165C462.155,151.4,462.155,151.453,462.211,151.509Z" transform="translate(-341.389 -127.4)" fill="#989898"></path>
      <path id="Path_2361" data-name="Path 2361" d="M523.876,128.336v1.278c0,.333-.167.444-.444.444h-9.277a.147.147,0,0,0-.167.167v29.608c0,.333-.167.444-.444.444h-1.555c-.333,0-.444-.167-.444-.444V130.225a.147.147,0,0,0-.167-.167h-8.832c-.333,0-.444-.167-.444-.444v-1.278c0-.333.167-.444.444-.444h20.887C523.709,127.836,523.876,128,523.876,128.336Z" transform="translate(-361.447 -127.392)" fill="#989898"></path>
      <path id="Path_2362" data-name="Path 2362" d="M552.411,158.941a9.37,9.37,0,0,1-3.777-3.722,11.194,11.194,0,0,1-1.333-5.5V137.555a11.193,11.193,0,0,1,1.333-5.5,9.039,9.039,0,0,1,3.777-3.722,11.476,11.476,0,0,1,5.61-1.333,11.851,11.851,0,0,1,5.666,1.333,9.369,9.369,0,0,1,3.777,3.722,11.193,11.193,0,0,1,1.333,5.5v12.221a11.193,11.193,0,0,1-1.333,5.5A9.371,9.371,0,0,1,563.687,159a11.545,11.545,0,0,1-5.666,1.333A12.145,12.145,0,0,1,552.411,158.941Zm11.665-3.055a7.913,7.913,0,0,0,2.278-6V137.555a8.215,8.215,0,0,0-2.278-6,8.125,8.125,0,0,0-6.055-2.278,8.215,8.215,0,0,0-6,2.278,8.3,8.3,0,0,0-2.277,6v12.277a7.824,7.824,0,0,0,8.277,8.277A8.006,8.006,0,0,0,564.076,155.886Z" transform="translate(-381.539 -127)" fill="#989898"></path>
      <path id="Path_2363" data-name="Path 2363" d="M601.2,159.841v-31.5c0-.333.167-.444.444-.444H603.2c.333,0,.444.167.444.444v29.608a.147.147,0,0,0,.167.167h16.665c.333,0,.444.167.444.444v1.278c0,.333-.167.444-.444.444H601.644C601.311,160.286,601.2,160.175,601.2,159.841Z" transform="translate(-405.497 -127.4)" fill="#989898"></path>
      <path id="Path_2364" data-name="Path 2364" d="M651.411,158.941a9.37,9.37,0,0,1-3.777-3.722,11.193,11.193,0,0,1-1.333-5.5V137.555a11.193,11.193,0,0,1,1.333-5.5,9.039,9.039,0,0,1,3.777-3.722A11.476,11.476,0,0,1,657.021,127a11.852,11.852,0,0,1,5.666,1.333,9.369,9.369,0,0,1,3.777,3.722,11.192,11.192,0,0,1,1.333,5.5v12.221a11.192,11.192,0,0,1-1.333,5.5A9.37,9.37,0,0,1,662.687,159a11.546,11.546,0,0,1-5.666,1.333A12.322,12.322,0,0,1,651.411,158.941Zm11.721-3.055a7.913,7.913,0,0,0,2.277-6V137.555a8.214,8.214,0,0,0-2.277-6,8.125,8.125,0,0,0-6.055-2.278,8.214,8.214,0,0,0-6,2.278,8.3,8.3,0,0,0-2.278,6v12.277a8.573,8.573,0,0,0,14.332,6.055Z" transform="translate(-425.544 -127)" fill="#989898"></path>
      <path id="Path_2365" data-name="Path 2365" d="M703.355,159.041a9.058,9.058,0,0,1-3.722-3.5,9.94,9.94,0,0,1-1.333-5.166V137.043a10,10,0,0,1,1.333-5.222,9.057,9.057,0,0,1,3.722-3.5,13.11,13.11,0,0,1,11.054,0,9.175,9.175,0,0,1,3.722,3.389,9.345,9.345,0,0,1,1.333,5v.667c0,.333-.167.444-.444.444h-1.556c-.333,0-.444-.167-.444-.444v-.611a7.08,7.08,0,0,0-2.222-5.444,9.191,9.191,0,0,0-11.721,0,7.243,7.243,0,0,0-2.222,5.555v13.554a7.325,7.325,0,0,0,2.222,5.555,9.464,9.464,0,0,0,11.777.111,6.949,6.949,0,0,0,2.222-5.333V146.1a.147.147,0,0,0-.167-.167h-7.221c-.333,0-.444-.167-.444-.444v-1.278c0-.333.167-.444.444-.444h9.388c.333,0,.444.167.444.444v6a9.545,9.545,0,0,1-2.889,7.388,10.612,10.612,0,0,1-7.666,2.722A11.944,11.944,0,0,1,703.355,159.041Z" transform="translate(-448.658 -127.044)" fill="#989898"></path>
      <path id="Path_2366" data-name="Path 2366" d="M755.432,159.8V145.52c0-.111,0-.222-.056-.222l-9.666-16.943a.939.939,0,0,1-.111-.278c0-.167.167-.278.444-.278H747.6a.676.676,0,0,1,.555.333l8.333,14.554c.056.056.056.056.167.056a.2.2,0,0,0,.167-.056l8.333-14.554a.676.676,0,0,1,.555-.333h1.555a.432.432,0,0,1,.389.167.351.351,0,0,1-.056.389L757.932,145.3c-.056.056-.056.111-.056.222V159.8c0,.333-.167.444-.444.444h-1.5C755.6,160.241,755.432,160.13,755.432,159.8Z" transform="translate(-469.683 -127.356)" fill="#989898"></path>
    </g>
    <g id="Group_1313" data-name="Group 1313" transform="translate(118.534 9.7)">
      <rect id="Rectangle_182" data-name="Rectangle 182" width="1.444" height="97.935" transform="translate(0 0)" fill="#989898"></rect>
    </g>
  </g>
</svg>
